<?xml version="1.0" encoding="UTF-8" standalone="no"?>
<!-- Created with Inkscape (http://www.inkscape.org/) -->
<svg xmlns:rdf="http://www.w3.org/1999/02/22-rdf-syntax-ns#" xmlns="http://www.w3.org/2000/svg" xmlns:i="http://ns.adobe.com/AdobeIllustrator/10.0/" xmlns:cc="http://web.resource.org/cc/" xmlns:xlink="http://www.w3.org/1999/xlink" xmlns:dc="http://purl.org/dc/elements/1.1/" xmlns:svg="http://www.w3.org/2000/svg" xmlns:inkscape="http://www.inkscape.org/namespaces/inkscape" xmlns:sodipodi="http://sodipodi.sourceforge.net/DTD/sodipodi-0.dtd" xmlns:ns1="http://sozi.baierouge.fr" id="svg2" version="1.0" viewBox="0 0 224.644 233.101" inkscape:version="0.91 r13725">
  <g id="g3194">
    <path id="path15" style="stroke:#000000;stroke-width:.036;stroke-miterlimit:10;fill-rule:evenodd" d="m182.25 114.28l1.69-3.27 12.5 7.85 14.83 3.2 13.35-4.65-2.05-11.62-9.86-14.224 4.06-8.748-2.62-10.728 8.13-11.916-1.44-8.424-17.13-1.764-4.36 1.764h-17.13l-7.57 4.356-12.81 1.44-6.95 2.628 0.87 7.848-7.28 6.372-9.57-1.728-11.63-5.796-30.817-11.052-26.712-11.052-31.392 2.052-22.68-16.56-5.22-16.596 5.508-5.22 20.664-0.288 3.456-4.356-7.848-3.204-20.34-0.576-11.879 12.492 5.22 24.696 19.476 20.628 1.44 11.052-9 11.34 2.88 17.424 7.848 26.17-11.016 15.09 5.508 20.91 3.204 12.21-0.288 9.89 10.152 2.63 7.56-6.12-8.136-8.42-4.932-22.97 10.152-8.14 8.424-7.23 6.408 16.56 4.356 6.95 13.644 1.18 6.696-8.13-11.916-2.34-6.66-9.29-1.764-12.2 7.848-6.7 8.136-9.86 10.476 12.78 14.794 15.12 26.46 13.06-2.34 10.44 3.78 8.72v22.96l-2.3 9.9 3.45 10.16-4.06 14.25 0.9 7.85 15.98-0.9 4.07-11.63-6.99-11.59 2.02-25.6 3.78 11.92 12.78-0.58 1.48-9-9-3.78-0.29-11.34 7.23-13.93 17.75-18.61 3.21-18.58 2.05-1.15 1.76-4.03z"/>
    <path id="path17" style="fill-rule:evenodd;stroke:#000000;stroke-miterlimit:10;stroke-width:.036;fill:#ffffff" d="m157.77 69.462l6.41 8.424-1.44 5.832 0.29 9.288-0.58 10.764 19.44 6.37-2.3 5.83-2.92 3.78-2.34 16.57-10.15 10.43-15.7 12.78-5.5 10.77-3.5 16.56-2.34 24.12 6.7 9.29-2.34 9.9-11.92 1.15-1.73-4.94 4.07-15.12-3.2-9.28 2.05-10.48-0.58-17.42-0.89-10.16-2.02-4.96 8.71 4.06-8.14-6.08 1.44-8.71-3.45-9.9-2.34-14.8-3.21 6.09 6.12 16.84-24.98-13.06-11.628-12.78-13.968-15.7-11.052-2.91-8.424 5.25-3.78 15.95-7.812 9.04-16.272 12.78 2.592 15.98 1.152 9.29 6.408 7.27-1.728 3.78h-9.036l0.288-7.85-8.712-34.02 9.9-13.64-1.188-11.63-6.66-20.055-1.476-12.78 9.036-12.204-1.762-10.761-6.372-9.288-13.969-12.78-4.356-22.968 10.476-11.592 18.577 0.288 5.256 2.592-2.34 1.764-18.9 0.576-6.66 5.508 4.644 19.476 21.78 15.984-3.78 6.084 11.052-5.22 26.172-1.44 20.016 8.136 43.306 17.136 9 5.796 11.92-4.356 4.64-4.644z"/>
    <path id="path19" style="fill-rule:evenodd;stroke:#000000;stroke-miterlimit:10;stroke-width:.036;fill:#ffffff" d="m158.42 61.83l3.17 8.064 5.29 8.028 2.95 7.848 7.42 0.828 1.47-15.876 4.04-6.984 3.81-3.168-8.06-4.248-5.51 1.476-12.67 1.08-1.91 2.952z"/>
    <path id="path21" style="fill-rule:evenodd;stroke:#000000;stroke-miterlimit:10;stroke-width:.036;fill:#ffffff" d="m203.74 52.074l5.91 5.508 4.68 11.016 6.55-8.676-1.48-6.768-12.7-1.692-2.96 0.612z"/>
    <path id="path23" style="fill-rule:evenodd;stroke:#000000;stroke-miterlimit:10;stroke-width:.036;fill:#ffffff" d="m181.06 55.89l1.48-1.692 4.46-1.26 12.28 0.216 5.29 2.34 4.25 5.508 5.72 18-0.86 4.428 0.22 2.124-2.74 6.156 10.58 16.7-6.58 2.34-1.7 9.33-7.2-1.26-6.76-1.69-8.07-6.81 2.56 4.68-9.54-5.72-19.69-6.16-0.65-22.03 2.56-0.612 2.55 8.028 9.94-0.216 0.65-15.444 3.81-6.768 5.91-6.372-8.47-3.816z"/>
    <path id="path25" style="stroke:#000000;stroke-width:.036;stroke-miterlimit:10;fill-rule:evenodd" d="m187.44 88.938l8.67 0.864 4.21-1.692 2.13 4.428-4.43 1.08-2.99 2.952-4.86-1.476 0.22-3.816-2.95-2.34z"/>
    <path id="path27" style="fill-rule:evenodd;stroke:#000000;stroke-miterlimit:10;stroke-width:.036;fill:#ffffff" d="m156.91 155.36l-7.6 12.89-1.08 13.78 9.33 5.3-0.87 6.15h-9.5l-4.25-12.1 2.95-14.61 11.02-11.41z"/>
    <path id="path29" style="fill-rule:evenodd;stroke:#000000;stroke-miterlimit:10;stroke-width:.036;fill:#ffffff" d="m75.583 148.99l-9.936-2.56-6.372-8.89-1.044-14.84 15.228-15.44-8.459-3.17-7.848 4.22-3.816 15.91-3.168 6.33 9.54 22.25 11.016 1.69 4.859-5.5z"/>
  </g>
  <metadata>
    <rdf:RDF>
      <cc:Work>
        <dc:format>image/svg+xml</dc:format>
        <dc:type rdf:resource="http://purl.org/dc/dcmitype/StillImage"/>
        <cc:license rdf:resource="http://creativecommons.org/licenses/publicdomain/"/>
        <dc:publisher>
          <cc:Agent rdf:about="http://openclipart.org/">
            <dc:title>Openclipart</dc:title>
          </cc:Agent>
        </dc:publisher>
        <dc:title>Dog (Simple Drawing)</dc:title>
        <dc:date>2007-11-14T23:32:50</dc:date>
        <dc:description/>
        <dc:source>https://openclipart.org/detail/8515/dog-(simple-drawing)-by-gerald_g-8515</dc:source>
        <dc:creator>
          <cc:Agent>
            <dc:title>Gerald_G</dc:title>
          </cc:Agent>
        </dc:creator>
        <dc:subject>
          <rdf:Bag>
            <rdf:li>animal</rdf:li>
            <rdf:li>colouring book</rdf:li>
            <rdf:li>dog</rdf:li>
            <rdf:li>mammal</rdf:li>
            <rdf:li>pet</rdf:li>
          </rdf:Bag>
        </dc:subject>
      </cc:Work>
      <cc:License rdf:about="http://creativecommons.org/licenses/publicdomain/">
        <cc:permits rdf:resource="http://creativecommons.org/ns#Reproduction"/>
        <cc:permits rdf:resource="http://creativecommons.org/ns#Distribution"/>
        <cc:permits rdf:resource="http://creativecommons.org/ns#DerivativeWorks"/>
      </cc:License>
    </rdf:RDF>
  </metadata>
</svg>
